<mxfile host="app.diagrams.net" modified="2023-06-23T04:22:43.442Z" agent="Mozilla/5.0 (Windows NT 10.0; Win64; x64) AppleWebKit/537.36 (KHTML, like Gecko) Chrome/114.0.0.0 Safari/537.36" etag="xf5IUXJ4trcz7SyL6plk" version="21.5.0" type="github">
  <diagram id="C5RBs43oDa-KdzZeNtuy" name="Page-1">
    <mxGraphModel dx="1434" dy="796" grid="1" gridSize="10" guides="1" tooltips="1" connect="1" arrows="1" fold="1" page="1" pageScale="1" pageWidth="827" pageHeight="1169" math="0" shadow="0">
      <root>
        <mxCell id="WIyWlLk6GJQsqaUBKTNV-0" />
        <mxCell id="WIyWlLk6GJQsqaUBKTNV-1" parent="WIyWlLk6GJQsqaUBKTNV-0" />
        <mxCell id="hukSK6vWABe0xQTqwh1R-0" value="&lt;font style=&quot;font-size: 20px;&quot;&gt;CAN sender task&lt;/font&gt;" style="text;html=1;align=center;verticalAlign=middle;resizable=0;points=[];autosize=1;strokeColor=none;fillColor=none;" parent="WIyWlLk6GJQsqaUBKTNV-1" vertex="1">
          <mxGeometry x="329" y="20" width="170" height="40" as="geometry" />
        </mxCell>
        <mxCell id="hukSK6vWABe0xQTqwh1R-3" value="" style="edgeStyle=orthogonalEdgeStyle;rounded=0;orthogonalLoop=1;jettySize=auto;html=1;" parent="WIyWlLk6GJQsqaUBKTNV-1" source="hukSK6vWABe0xQTqwh1R-1" target="hukSK6vWABe0xQTqwh1R-2" edge="1">
          <mxGeometry relative="1" as="geometry" />
        </mxCell>
        <mxCell id="hukSK6vWABe0xQTqwh1R-1" value="A" style="ellipse;whiteSpace=wrap;html=1;aspect=fixed;" parent="WIyWlLk6GJQsqaUBKTNV-1" vertex="1">
          <mxGeometry x="370" y="90" width="80" height="80" as="geometry" />
        </mxCell>
        <mxCell id="hukSK6vWABe0xQTqwh1R-7" value="" style="edgeStyle=orthogonalEdgeStyle;rounded=0;orthogonalLoop=1;jettySize=auto;html=1;" parent="WIyWlLk6GJQsqaUBKTNV-1" source="hukSK6vWABe0xQTqwh1R-2" target="hukSK6vWABe0xQTqwh1R-6" edge="1">
          <mxGeometry relative="1" as="geometry" />
        </mxCell>
        <mxCell id="hukSK6vWABe0xQTqwh1R-11" value="No" style="edgeLabel;html=1;align=center;verticalAlign=middle;resizable=0;points=[];fontSize=14;" parent="hukSK6vWABe0xQTqwh1R-7" vertex="1" connectable="0">
          <mxGeometry x="-0.2444" relative="1" as="geometry">
            <mxPoint x="10" y="6" as="offset" />
          </mxGeometry>
        </mxCell>
        <mxCell id="hukSK6vWABe0xQTqwh1R-9" value="" style="edgeStyle=orthogonalEdgeStyle;rounded=0;orthogonalLoop=1;jettySize=auto;html=1;" parent="WIyWlLk6GJQsqaUBKTNV-1" source="hukSK6vWABe0xQTqwh1R-2" target="hukSK6vWABe0xQTqwh1R-8" edge="1">
          <mxGeometry relative="1" as="geometry" />
        </mxCell>
        <mxCell id="hukSK6vWABe0xQTqwh1R-10" value="Yes" style="edgeLabel;html=1;align=center;verticalAlign=middle;resizable=0;points=[];fontSize=14;" parent="hukSK6vWABe0xQTqwh1R-9" vertex="1" connectable="0">
          <mxGeometry x="0.24" relative="1" as="geometry">
            <mxPoint x="-22" y="10" as="offset" />
          </mxGeometry>
        </mxCell>
        <mxCell id="hukSK6vWABe0xQTqwh1R-2" value="is Queue empty?" style="rhombus;whiteSpace=wrap;html=1;" parent="WIyWlLk6GJQsqaUBKTNV-1" vertex="1">
          <mxGeometry x="370" y="250" width="80" height="80" as="geometry" />
        </mxCell>
        <mxCell id="hukSK6vWABe0xQTqwh1R-13" value="" style="edgeStyle=orthogonalEdgeStyle;rounded=0;orthogonalLoop=1;jettySize=auto;html=1;" parent="WIyWlLk6GJQsqaUBKTNV-1" source="hukSK6vWABe0xQTqwh1R-6" target="hukSK6vWABe0xQTqwh1R-12" edge="1">
          <mxGeometry relative="1" as="geometry" />
        </mxCell>
        <mxCell id="hukSK6vWABe0xQTqwh1R-6" value="Get data from queue" style="rounded=1;whiteSpace=wrap;html=1;" parent="WIyWlLk6GJQsqaUBKTNV-1" vertex="1">
          <mxGeometry x="350" y="420" width="120" height="70" as="geometry" />
        </mxCell>
        <mxCell id="hukSK6vWABe0xQTqwh1R-17" value="" style="edgeStyle=orthogonalEdgeStyle;rounded=0;orthogonalLoop=1;jettySize=auto;html=1;" parent="WIyWlLk6GJQsqaUBKTNV-1" source="hukSK6vWABe0xQTqwh1R-8" target="hukSK6vWABe0xQTqwh1R-16" edge="1">
          <mxGeometry relative="1" as="geometry" />
        </mxCell>
        <mxCell id="hukSK6vWABe0xQTqwh1R-8" value="Send CAN bus command of wake, voltage cut off parameter, and reconnect parameter&amp;nbsp;" style="rounded=1;whiteSpace=wrap;html=1;" parent="WIyWlLk6GJQsqaUBKTNV-1" vertex="1">
          <mxGeometry x="550" y="260" width="220" height="60" as="geometry" />
        </mxCell>
        <mxCell id="hukSK6vWABe0xQTqwh1R-15" value="" style="edgeStyle=orthogonalEdgeStyle;rounded=0;orthogonalLoop=1;jettySize=auto;html=1;" parent="WIyWlLk6GJQsqaUBKTNV-1" source="hukSK6vWABe0xQTqwh1R-12" target="hukSK6vWABe0xQTqwh1R-14" edge="1">
          <mxGeometry relative="1" as="geometry" />
        </mxCell>
        <mxCell id="hukSK6vWABe0xQTqwh1R-12" value="Send the data to CAN bus line" style="whiteSpace=wrap;html=1;rounded=1;" parent="WIyWlLk6GJQsqaUBKTNV-1" vertex="1">
          <mxGeometry x="350" y="575" width="120" height="60" as="geometry" />
        </mxCell>
        <mxCell id="hj6cEwNjDo0QO8gdmhxA-0" style="edgeStyle=orthogonalEdgeStyle;rounded=0;orthogonalLoop=1;jettySize=auto;html=1;entryX=0.5;entryY=0;entryDx=0;entryDy=0;" edge="1" parent="WIyWlLk6GJQsqaUBKTNV-1" source="hukSK6vWABe0xQTqwh1R-14" target="hukSK6vWABe0xQTqwh1R-2">
          <mxGeometry relative="1" as="geometry">
            <Array as="points">
              <mxPoint x="300" y="745" />
              <mxPoint x="300" y="220" />
              <mxPoint x="410" y="220" />
            </Array>
          </mxGeometry>
        </mxCell>
        <mxCell id="hukSK6vWABe0xQTqwh1R-14" value="vTask delay 20 ms" style="rounded=1;whiteSpace=wrap;html=1;" parent="WIyWlLk6GJQsqaUBKTNV-1" vertex="1">
          <mxGeometry x="350" y="715" width="120" height="60" as="geometry" />
        </mxCell>
        <mxCell id="hj6cEwNjDo0QO8gdmhxA-1" style="edgeStyle=orthogonalEdgeStyle;rounded=0;orthogonalLoop=1;jettySize=auto;html=1;entryX=0.5;entryY=0;entryDx=0;entryDy=0;" edge="1" parent="WIyWlLk6GJQsqaUBKTNV-1" source="hukSK6vWABe0xQTqwh1R-16" target="hukSK6vWABe0xQTqwh1R-2">
          <mxGeometry relative="1" as="geometry">
            <Array as="points">
              <mxPoint x="800" y="430" />
              <mxPoint x="800" y="220" />
              <mxPoint x="410" y="220" />
            </Array>
          </mxGeometry>
        </mxCell>
        <mxCell id="hukSK6vWABe0xQTqwh1R-16" value="vTask delay 200 ms" style="rounded=1;whiteSpace=wrap;html=1;" parent="WIyWlLk6GJQsqaUBKTNV-1" vertex="1">
          <mxGeometry x="600" y="400" width="120" height="60" as="geometry" />
        </mxCell>
      </root>
    </mxGraphModel>
  </diagram>
</mxfile>
